<?xml version="1.0" standalone="no"?>
<!DOCTYPE svg PUBLIC "-//W3C//DTD SVG 20010904//EN"
 "http://www.w3.org/TR/2001/REC-SVG-20010904/DTD/svg10.dtd">
<svg version="1.0" xmlns="http://www.w3.org/2000/svg"
 width="500.000000pt" height="500.000000pt" viewBox="0 0 500.000000 500.000000"
 preserveAspectRatio="xMidYMid meet">

<g transform="translate(0.000000,500.000000) scale(0.100000,-0.100000)"
fill="#000000" stroke="none">
<path d="M2105 3381 c-86 -21 -146 -85 -165 -176 -12 -58 -2 -117 28 -163 8
-13 89 -82 178 -153 148 -118 166 -135 193 -191 52 -103 36 -204 -44 -277 -69
-64 -165 -85 -258 -57 -107 32 -170 118 -169 231 0 61 9 87 60 188 2 4 -1 7
-6 7 -18 0 -63 -81 -79 -144 -14 -54 -15 -71 -4 -119 22 -101 98 -181 195
-208 61 -17 174 -15 232 5 107 35 183 131 192 241 12 153 -31 220 -254 396
-90 72 -171 144 -179 160 -23 43 -19 110 8 149 38 56 71 75 135 75 77 -1 118
-25 148 -90 l23 -50 0 81 1 81 -82 11 c-91 13 -109 13 -153 3z"/>
<path d="M2400 3286 c0 -13 17 -50 39 -82 l39 -59 -18 -150 c-16 -137 -17
-152 -2 -177 9 -15 19 -25 23 -23 4 3 10 55 14 117 4 62 11 121 14 131 5 13
45 -65 136 -262 118 -258 145 -308 145 -266 0 17 226 534 239 548 4 4 18 -68
30 -160 48 -361 61 -409 136 -491 45 -50 124 -82 198 -81 52 1 52 1 17 11
-100 29 -156 71 -195 148 -29 56 -41 118 -96 473 -24 152 -46 277 -49 277 -3
0 -48 -96 -100 -212 -52 -117 -114 -255 -138 -307 l-43 -95 -118 255 c-65 140
-127 273 -139 296 -23 45 -78 105 -112 123 -17 9 -20 8 -20 -14z"/>
<path d="M622 1954 c-15 -10 -22 -25 -22 -49 0 -29 7 -39 43 -63 68 -47 82
-68 69 -97 -23 -50 -101 -40 -126 17 -8 18 -15 27 -15 20 -1 -21 27 -69 44
-76 9 -3 34 -6 56 -6 68 0 109 63 79 119 -5 10 -32 33 -60 51 -39 25 -50 38
-48 54 4 28 56 35 75 10 12 -17 13 -17 13 3 0 35 -67 46 -108 17z"/>
<path d="M2070 1946 c0 -16 3 -17 12 -8 7 7 25 12 40 12 l28 0 0 -104 c0 -74
-4 -106 -12 -109 -7 -3 5 -6 27 -6 l40 -1 -3 110 -3 110 28 0 c16 0 34 -5 41
-12 9 -9 12 -8 12 8 0 18 -8 19 -105 19 -97 0 -105 -1 -105 -19z"/>
<path d="M3125 1952 c-46 -22 -65 -55 -65 -113 0 -33 7 -48 34 -75 31 -31 40
-34 90 -34 95 0 139 37 139 119 0 44 -21 84 -53 101 -39 21 -103 22 -145 2z
m119 -21 c20 -22 32 -88 22 -126 -16 -62 -83 -85 -124 -42 -40 43 -41 128 -1
168 25 25 80 25 103 0z"/>
<path d="M3970 1961 l-65 -6 0 -113 0 -112 78 0 c60 0 77 3 77 14 0 8 3 23 7
33 5 14 2 13 -13 -5 -11 -13 -35 -25 -56 -29 l-38 -6 0 52 c0 49 1 51 28 51
15 0 33 -5 40 -12 9 -9 12 -6 12 17 0 23 -3 26 -12 17 -7 -7 -25 -12 -40 -12
-27 0 -28 2 -28 50 0 50 0 50 33 50 18 0 38 -5 45 -12 9 -9 12 -7 12 10 0 12
-3 21 -7 20 -5 -1 -37 -4 -73 -7z"/>
<path d="M947 1935 c-4 -16 -11 -65 -17 -109 -5 -43 -13 -82 -16 -87 -3 -5 3
-9 13 -9 15 0 19 10 21 57 5 85 7 85 65 -13 l29 -48 36 67 c40 74 50 71 51
-15 l1 -48 35 0 c31 0 34 2 27 18 -5 9 -13 46 -16 82 -4 36 -11 81 -15 100
l-7 35 -49 -83 -49 -83 -42 68 c-24 37 -47 75 -52 83 -7 12 -11 9 -15 -15z"/>
<path d="M1421 1902 c-14 -31 -37 -83 -52 -114 l-27 -58 24 0 c16 0 22 4 18
14 -11 28 15 56 51 56 36 0 62 -28 51 -56 -4 -11 5 -14 41 -14 43 0 45 1 31
18 -8 9 -34 61 -59 115 -24 53 -46 97 -49 97 -3 0 -16 -26 -29 -58z m32 -54
l16 -38 -34 0 -34 0 17 39 c9 22 18 39 18 38 1 -1 9 -19 17 -39z"/>
<path d="M1725 1845 l0 -115 40 0 c30 0 36 3 27 12 -8 8 -12 47 -12 110 0 90
2 98 19 98 23 0 51 -25 51 -46 0 -24 -19 -54 -34 -54 -11 0 -8 -13 10 -50 24
-50 51 -70 96 -70 19 0 18 2 -8 34 -65 76 -63 70 -37 89 30 24 31 70 1 91 -15
11 -45 16 -88 16 l-65 0 0 -115z"/>
<path d="M2651 1873 c-6 -49 -15 -100 -20 -115 -8 -24 -7 -28 10 -28 16 0 19
7 19 43 0 23 3 52 6 65 6 20 11 15 46 -44 l40 -66 35 61 c19 34 38 61 44 61 7
0 14 -55 12 -107 -1 -8 12 -13 32 -13 33 0 33 1 25 33 -5 17 -12 61 -15 97
-13 112 -16 113 -69 21 l-48 -83 -49 81 c-28 45 -52 81 -53 81 -2 0 -9 -39
-15 -87z"/>
<path d="M3498 1859 c2 -67 -1 -105 -9 -115 -10 -12 -5 -14 32 -14 33 0 40 3
31 12 -13 13 -17 138 -5 138 4 0 42 -34 85 -77 l77 -76 3 116 3 117 -27 0
c-27 0 -27 -1 -30 -71 l-3 -72 -76 72 c-42 39 -78 71 -80 71 -2 0 -3 -45 -1
-101z"/>
<path d="M4252 1900 c36 -55 40 -65 36 -115 l-3 -55 30 0 c30 0 30 0 27 50 -4
45 1 58 37 115 32 52 37 65 23 65 -10 -1 -26 -20 -40 -50 -13 -28 -27 -50 -31
-50 -9 0 -47 81 -43 92 1 5 -16 8 -37 8 l-39 0 40 -60z"/>
</g>
</svg>
